<?xml version="1.0" ?><svg id="Layer_1" style="enable-background:new 0 0 100 100;" version="1.1" viewBox="0 0 100 100" xml:space="preserve" xmlns="http://www.w3.org/2000/svg" xmlns:xlink="http://www.w3.org/1999/xlink"><style type="text/css">
	.st0{fill:none;stroke:#000000;stroke-width:8;stroke-linecap:round;stroke-linejoin:round;stroke-miterlimit:10;}
</style><g><g><path d="M50,92.3c-7.1,0-12.9-5.8-12.9-12.9c0-1,0.8-1.8,1.8-1.8H61c1,0,1.8,0.8,1.8,1.8C62.9,86.5,57.1,92.3,50,92.3z M41,81.3    c0.9,4.2,4.6,7.4,9,7.4s8.2-3.2,9-7.4H41z"/></g><g><path d="M82.6,81.3H17.4c-5.4,0-9.7-4.4-9.7-9.7c0-5,3.7-9.1,8.6-9.7c0.8-1.8,2.5-6.3,2.5-12.5c0-0.7,0-1.4,0-2.3    c-0.2-7.1-0.6-22,8.5-31.2c5.3-5.4,13-8.2,22.9-8.2s17.6,2.7,22.9,8.2c9,9.3,8.6,24.1,8.5,31.2c0,0.9,0,1.7,0,2.3    c0,6.2,1.7,10.7,2.5,12.5c4.8,0.6,8.6,4.7,8.6,9.7C92.3,76.9,87.9,81.3,82.6,81.3z M50,11.4c-8.9,0-15.7,2.4-20.2,7    c-7.9,8.1-7.6,21.4-7.4,28.6c0,0.9,0,1.7,0,2.4c0,9.1-3.2,14.9-3.4,15.2c-0.3,0.6-0.9,0.9-1.6,0.9c-3.3,0-6.1,2.7-6.1,6.1    c0,3.3,2.7,6.1,6.1,6.1h65.2c3.3,0,6.1-2.7,6.1-6.1c0-3.3-2.7-6.1-6.1-6.1c-0.7,0-1.3-0.4-1.6-0.9c-0.1-0.2-3.4-6-3.4-15.2    c0-0.7,0-1.5,0-2.4c0.2-7.1,0.5-20.4-7.4-28.6C65.7,13.7,58.9,11.4,50,11.4z"/></g><g><path d="M30.5,38.4C30.5,38.4,30.5,38.4,30.5,38.4c-1.1,0-1.9-0.9-1.8-1.9c0.7-17.7,15.4-21.4,15.5-21.4c1-0.2,2,0.4,2.2,1.4    c0.2,1-0.4,2-1.4,2.2c-0.5,0.1-12.1,3.2-12.7,18C32.3,37.6,31.5,38.4,30.5,38.4z"/></g><g><path d="M82.6,81.3H17.4c-5.4,0-9.7-4.4-9.7-9.7s4.4-9.7,9.7-9.7h46.5c1,0,1.8,0.8,1.8,1.8s-0.8,1.8-1.8,1.8H17.4    c-3.3,0-6.1,2.7-6.1,6.1c0,3.3,2.7,6.1,6.1,6.1h65.2c3.3,0,6.1-2.7,6.1-6.1c0-3.3-2.7-6.1-6.1-6.1h-8.5c-1,0-1.8-0.8-1.8-1.8    s0.8-1.8,1.8-1.8h8.5c5.4,0,9.7,4.4,9.7,9.7S87.9,81.3,82.6,81.3z"/></g></g></svg>